<svg xmlns="http://www.w3.org/2000/svg" viewBox="0 0 500 500"><g id="freepik--Clouds--inject-13"><path d="M455.45,209.28c-1.91-1-2.78-.17-3.47-1s1.91-3.12-3.29-5.38c0,0-.35-4.85-7.46-5s-5.2,4.85-7.1,6.06-2.43-.69-4.34.52-1,3.64-2.6,4-3.64-1.56-5.55-.35-1.9,2.26-2.77,2.26-2.6-.69-3.64,0-2.25,1.56-2.25,1.56h43.86A2.24,2.24,0,0,0,455.45,209.28Z" style="fill:none;stroke:#92989b;stroke-linecap:round;stroke-linejoin:round;stroke-width:0.9836334586143494px"></path><path d="M429.5,208.57a5.14,5.14,0,0,1-.77.36" style="fill:none;stroke:#92989b;stroke-linecap:round;stroke-linejoin:round;stroke-width:0.9836334586143494px"></path><path d="M438.89,200.47a3,3,0,0,0-1.7,2.11c-.31,1.59-1.06,2.65-1.9,2.75s-4-.21-4.55,1a4.57,4.57,0,0,0-.3,1.06" style="fill:none;stroke:#92989b;stroke-linecap:round;stroke-linejoin:round;stroke-width:0.9836334586143494px"></path><line x1="425.11" y1="208.18" x2="428.15" y2="208.18" style="fill:none;stroke:#92989b;stroke-linecap:round;stroke-linejoin:round;stroke-width:0.9836334586143494px"></line><path d="M452,208.18h20.5s1.65-4.94-4.39-8.23-8.79-.55-11-3.3,6-9.89-10.43-17c0,0-1.1-15.38-23.62-15.93s-16.48,15.38-22.52,19.23-7.69-2.2-13.73,1.65-3.3,11.53-8.24,12.63S367,192.26,361,196.1s-6,7.14-8.79,7.14-8.24-2.2-11.53,0-7.14,4.94-7.14,4.94h88.12" style="fill:none;stroke:#92989b;stroke-linecap:round;stroke-linejoin:round;stroke-width:0.9836334586143494px"></path><path d="M385.88,197.69a18.47,18.47,0,0,1-2.45,1.16" style="fill:none;stroke:#92989b;stroke-linecap:round;stroke-linejoin:round;stroke-width:0.9836334586143494px"></path><path d="M388.86,193.83a14.82,14.82,0,0,1,.94-3.36c1.68-3.69,11.73-2.68,14.41-3s5-3.69,6-8.71a9.38,9.38,0,0,1,5.36-6.71" style="fill:none;stroke:#92989b;stroke-linecap:round;stroke-linejoin:round;stroke-width:0.9836334586143494px"></path><path d="M143.24,104.79c-1.43-.78-2.08-.13-2.6-.78s1.43-2.34-2.47-4c0,0-.26-3.64-5.59-3.78s-3.9,3.65-5.33,4.56-1.83-.52-3.26.39-.78,2.73-1.95,3-2.73-1.17-4.16-.26-1.43,1.69-2.08,1.69-2-.52-2.73,0-1.69,1.17-1.69,1.17h32.9A1.68,1.68,0,0,0,143.24,104.79Z" style="fill:none;stroke:#92989b;stroke-linecap:round;stroke-linejoin:round;stroke-width:0.9836334586143494px"></path><path d="M123.78,104.25a6.42,6.42,0,0,1-.58.28" style="fill:none;stroke:#92989b;stroke-linecap:round;stroke-linejoin:round;stroke-width:0.9836334586143494px"></path><path d="M130.82,98.18a2.21,2.21,0,0,0-1.27,1.59c-.24,1.19-.8,2-1.43,2.06s-3-.16-3.41.71a3.57,3.57,0,0,0-.23.8" style="fill:none;stroke:#92989b;stroke-linecap:round;stroke-linejoin:round;stroke-width:0.9836334586143494px"></path><line x1="120.48" y1="103.97" x2="122.77" y2="103.97" style="fill:none;stroke:#92989b;stroke-linecap:round;stroke-linejoin:round;stroke-width:0.9836334586143494px"></line><path d="M140.64,104H156s1.23-3.71-3.3-6.18-6.59-.42-8.24-2.47,4.53-7.42-7.83-12.78c0,0-.82-11.53-17.71-12S106.58,82.13,102,85s-5.76-1.64-10.3,1.24-2.47,8.65-6.18,9.48S76.91,92,72.38,94.9s-4.53,5.36-6.59,5.36-6.18-1.65-8.66,0S51.78,104,51.78,104h66.1" style="fill:none;stroke:#92989b;stroke-linecap:round;stroke-linejoin:round;stroke-width:0.9836334586143494px"></path><path d="M91.06,96.09a13.44,13.44,0,0,1-1.84.87" style="fill:none;stroke:#92989b;stroke-linecap:round;stroke-linejoin:round;stroke-width:0.9836334586143494px"></path><path d="M93.29,93.2A10.63,10.63,0,0,1,94,90.68c1.25-2.77,8.8-2,10.81-2.27s3.77-2.76,4.52-6.53a7.06,7.06,0,0,1,4-5" style="fill:none;stroke:#92989b;stroke-linecap:round;stroke-linejoin:round;stroke-width:0.9836334586143494px"></path></g><g id="freepik--House2--inject-13"><path d="M90.49,273.12s14,1.39,21.15,10.09c0,0,7.51-10.08,21-9.87a27.28,27.28,0,1,0-42.16-.2Z" style="fill:#FCCC15"></path><path d="M90.49,273.12s14,1.39,21.15,10.09c0,0,7.51-10.08,21-9.87a27.28,27.28,0,1,0-42.16-.2Z" style="fill:#fff;opacity:0.2"></path><polygon points="112.56 311.08 111.17 240.9 110.83 311.8 112.56 311.08" style="fill:#828282"></polygon><path d="M111.88,280.56s4.74-8.53,13.27-11.14c0,0-9,2.14-13.5,9.48Z" style="fill:#828282"></path><path d="M111.53,256.87s5.09-9,13.62-11.61c0,0-9.09,2.48-13.59,9.82Z" style="fill:#828282"></path><path d="M111.67,268.78s5-8.83,13.48-11.44c0,0-9,2.14-13.5,9.48Z" style="fill:#828282"></path><path d="M111.18,262.56s-4.57-8.53-12.8-11.14c0,0,8.69,2.13,13,9.48Z" style="fill:#828282"></path><path d="M111.18,274.4s-4.57-8.53-12.8-11.13c0,0,8.69,2.13,13,9.47Z" style="fill:#828282"></path><path d="M433.77,304.93s14,1.38,21.14,10.08c0,0,7.52-10.07,21-9.87a27.27,27.27,0,1,0-42.17-.19Z" style="fill:#FCCC15"></path><path d="M433.77,304.93s14,1.38,21.14,10.08c0,0,7.52-10.07,21-9.87a27.27,27.27,0,1,0-42.17-.19Z" style="fill:#fff;opacity:0.2"></path><polygon points="455.84 342.88 454.45 272.7 454.11 343.6 455.84 342.88" style="fill:#828282"></polygon><path d="M455.16,312.36s4.74-8.53,13.27-11.13c0,0-9,2.13-13.51,9.47Z" style="fill:#828282"></path><path d="M454.81,288.67s5.09-9,13.62-11.6c0,0-9.09,2.47-13.59,9.81Z" style="fill:#828282"></path><path d="M455,300.59s4.95-8.84,13.48-11.44c0,0-9,2.13-13.51,9.47Z" style="fill:#828282"></path><path d="M454.46,294.36s-4.57-8.53-12.8-11.13c0,0,8.68,2.13,13,9.47Z" style="fill:#828282"></path><path d="M454.46,306.2s-4.57-8.52-12.8-11.13c0,0,8.68,2.13,13,9.48Z" style="fill:#828282"></path><path d="M104.89,241.78s28.32,2.8,42.67,20.35c0,0,15.16-20.33,42.39-19.91a55,55,0,1,0-85.06-.39Z" style="fill:#FCCC15"></path><path d="M104.89,241.78s28.32,2.8,42.67,20.35c0,0,15.16-20.33,42.39-19.91a55,55,0,1,0-85.06-.39Z" style="fill:#fff;opacity:0.4"></path><polygon points="149.42 318.36 146.62 176.77 145.93 319.82 149.42 318.36" style="fill:#828282"></polygon><path d="M148.06,256.78s9.55-17.2,26.76-22.46c0,0-18.16,4.3-27.24,19.12Z" style="fill:#828282"></path><path d="M147.34,209s10.27-18.16,27.48-23.41c0,0-18.33,5-27.41,19.8Z" style="fill:#828282"></path><path d="M147.62,233s10-17.81,27.2-23.07c0,0-18.16,4.3-27.24,19.12Z" style="fill:#828282"></path><path d="M146.64,220.46s-9.22-17.2-25.82-22.46c0,0,17.52,4.3,26.28,19.12Z" style="fill:#828282"></path><path d="M146.64,244.36s-9.22-17.21-25.82-22.46c0,0,17.52,4.3,26.28,19.11Z" style="fill:#828282"></path><rect x="174.68" y="243.3" width="2.22" height="53.26" style="fill:#fff;stroke:#636363;stroke-miterlimit:10;stroke-width:0.9836334586143494px"></rect><rect x="443.22" y="264.75" width="2.22" height="53.26" style="fill:#fff;stroke:#636363;stroke-miterlimit:10;stroke-width:0.9836334586143494px"></rect><rect x="269.37" y="267.71" width="171.63" height="69.54" style="fill:#fff;stroke:#636363;stroke-miterlimit:10;stroke-width:0.9836334586143494px"></rect><rect x="269.37" y="267.71" width="171.63" height="6.66" style="fill:#636363;stroke:#636363;stroke-miterlimit:10;stroke-width:0.9836334586143494px"></rect><polygon points="448.4 261.79 270.11 261.79 270.11 218.15 421.03 218.15 448.4 261.79" style="fill:#636363;stroke:#636363;stroke-miterlimit:10;stroke-width:0.9836334586143494px"></polygon><rect x="268.63" y="261.79" width="179.76" height="8.14" style="fill:#fff;stroke:#636363;stroke-miterlimit:10;stroke-width:0.9836334586143494px"></rect><rect x="179.56" y="244.81" width="120.28" height="58.18" style="fill:#fff;stroke:#636363;stroke-miterlimit:10;stroke-width:0.9836334586143494px"></rect><rect x="179.56" y="244.81" width="120.28" height="5.89" style="fill:#636363;stroke:#636363;stroke-miterlimit:10;stroke-width:0.9836334586143494px"></rect><polygon points="238.31 185.51 172.85 234.74 303.76 234.74 238.31 185.51" style="fill:#fff;stroke:#636363;stroke-miterlimit:10;stroke-width:0.9836334586143494px"></polygon><polygon points="238.31 192.22 186.24 231.38 290.37 231.38 238.31 192.22" style="fill:#636363;stroke:#636363;stroke-miterlimit:10;stroke-width:0.9836334586143494px"></polygon><rect x="83.9" y="326.49" width="7.83" height="90.97" style="fill:#fff;stroke:#636363;stroke-miterlimit:10;stroke-width:0.9836334586143494px"></rect><rect x="102.92" y="326.49" width="362.52" height="90.7" style="fill:#fff;stroke:#636363;stroke-miterlimit:10;stroke-width:0.9836334586143494px"></rect><rect x="102.92" y="326.49" width="362.52" height="10.02" style="fill:#636363;stroke:#636363;stroke-miterlimit:10;stroke-width:0.9836334586143494px"></rect><polygon points="319.43 323.69 73.83 323.69 94.53 296.84 319.43 296.84 319.43 323.69" style="fill:#636363;stroke:#636363;stroke-miterlimit:10;stroke-width:0.9836334586143494px"></polygon><rect x="73.83" y="323.69" width="199.72" height="5.59" style="fill:#fff;stroke:#636363;stroke-miterlimit:10;stroke-width:0.9836334586143494px"></rect><rect x="262.92" y="323.69" width="202.52" height="93.5" style="fill:#fff;stroke:#636363;stroke-miterlimit:10;stroke-width:0.9836334586143494px"></rect><rect x="268.13" y="329.11" width="192.11" height="88.08" style="fill:#636363;stroke:#636363;stroke-miterlimit:10;stroke-width:0.9836334586143494px"></rect><rect x="284.18" y="341.59" width="160" height="75.6" style="fill:#fff;stroke:#636363;stroke-miterlimit:10;stroke-width:0.9836334586143494px"></rect><rect x="288.35" y="365.31" width="36.13" height="14.25" style="fill:none;stroke:#a6a6a6;stroke-linecap:round;stroke-linejoin:round;stroke-width:0.9836334586143494px"></rect><rect x="326.92" y="365.31" width="36.13" height="14.25" style="fill:none;stroke:#a6a6a6;stroke-linecap:round;stroke-linejoin:round;stroke-width:0.9836334586143494px"></rect><rect x="288.35" y="382.33" width="36.13" height="14.25" style="fill:none;stroke:#a6a6a6;stroke-linecap:round;stroke-linejoin:round;stroke-width:0.9836334586143494px"></rect><rect x="326.92" y="382.33" width="36.13" height="14.25" style="fill:none;stroke:#a6a6a6;stroke-linecap:round;stroke-linejoin:round;stroke-width:0.9836334586143494px"></rect><rect x="288.35" y="399.36" width="36.13" height="14.25" style="fill:none;stroke:#a6a6a6;stroke-linecap:round;stroke-linejoin:round;stroke-width:0.9836334586143494px"></rect><rect x="326.92" y="399.36" width="36.13" height="14.25" style="fill:none;stroke:#a6a6a6;stroke-linecap:round;stroke-linejoin:round;stroke-width:0.9836334586143494px"></rect><rect x="365.49" y="365.31" width="36.13" height="14.25" style="fill:none;stroke:#a6a6a6;stroke-linecap:round;stroke-linejoin:round;stroke-width:0.9836334586143494px"></rect><rect x="404.06" y="365.31" width="36.13" height="14.25" style="fill:none;stroke:#a6a6a6;stroke-linecap:round;stroke-linejoin:round;stroke-width:0.9836334586143494px"></rect><rect x="365.49" y="382.33" width="36.13" height="14.25" style="fill:none;stroke:#a6a6a6;stroke-linecap:round;stroke-linejoin:round;stroke-width:0.9836334586143494px"></rect><rect x="404.06" y="382.33" width="36.13" height="14.25" style="fill:none;stroke:#a6a6a6;stroke-linecap:round;stroke-linejoin:round;stroke-width:0.9836334586143494px"></rect><rect x="365.49" y="399.36" width="36.13" height="14.25" style="fill:none;stroke:#a6a6a6;stroke-linecap:round;stroke-linejoin:round;stroke-width:0.9836334586143494px"></rect><rect x="404.06" y="399.36" width="36.13" height="14.25" style="fill:none;stroke:#a6a6a6;stroke-linecap:round;stroke-linejoin:round;stroke-width:0.9836334586143494px"></rect><polygon points="361.94 233.58 255.09 324.81 468.8 324.81 361.94 233.58" style="fill:#fff;stroke:#636363;stroke-miterlimit:10;stroke-width:0.9836334586143494px"></polygon><polygon points="361.94 246.02 276.95 318.59 446.94 318.59 361.94 246.02" style="fill:#636363;stroke:#636363;stroke-miterlimit:10;stroke-width:0.9836334586143494px"></polygon><rect x="172.85" y="234.74" width="132.59" height="10.63" style="fill:#fff;stroke:#636363;stroke-miterlimit:10;stroke-width:0.9836334586143494px"></rect><rect x="200.26" y="248.17" width="78.32" height="45.31" style="fill:#636363;stroke:#636363;stroke-miterlimit:10;stroke-width:0.9836334586143494px"></rect><rect x="211.45" y="248.17" width="55.94" height="45.31" style="fill:#fff;stroke:#636363;stroke-miterlimit:10;stroke-width:0.9836334586143494px"></rect><rect x="237.19" y="248.17" width="4.48" height="45.31" style="fill:#636363;stroke:#636363;stroke-miterlimit:10;stroke-width:0.9836334586143494px"></rect><rect x="237.46" y="243.13" width="3.92" height="55.38" transform="translate(510.25 31.4) rotate(90)" style="fill:#636363;stroke:#636363;stroke-miterlimit:10;stroke-width:0.9836334586143494px"></rect><rect x="119.7" y="346.63" width="78.32" height="55.94" style="fill:#636363;stroke:#636363;stroke-miterlimit:10;stroke-width:0.9836334586143494px"></rect><rect x="130.89" y="346.63" width="55.94" height="55.94" style="fill:#fff;stroke:#636363;stroke-miterlimit:10;stroke-width:0.9836334586143494px"></rect><rect x="156.63" y="346.63" width="4.48" height="55.94" style="fill:#636363;stroke:#636363;stroke-miterlimit:10;stroke-width:0.9836334586143494px"></rect><rect x="156.54" y="346.82" width="4.83" height="55.56" transform="translate(533.55 215.65) rotate(90)" style="fill:#636363;stroke:#636363;stroke-miterlimit:10;stroke-width:0.9836334586143494px"></rect><rect x="223.2" y="347.75" width="30.21" height="68.81" style="fill:#636363;stroke:#636363;stroke-miterlimit:10;stroke-width:0.9836334586143494px"></rect><rect x="228.24" y="352.04" width="20.14" height="53.32" style="fill:#fff"></rect><rect x="287.94" y="349.43" width="5.27" height="2.97" style="fill:#636363"></rect><rect x="295.54" y="349.43" width="5.27" height="2.97" style="fill:#636363"></rect><rect x="287.94" y="354.02" width="5.27" height="3.72" style="fill:#636363"></rect><rect x="295.54" y="354.02" width="5.27" height="3.72" style="fill:#636363"></rect><rect x="307.79" y="349.43" width="5.27" height="2.97" style="fill:#636363"></rect><rect x="315.39" y="349.43" width="5.27" height="2.97" style="fill:#636363"></rect><rect x="307.79" y="354.02" width="5.27" height="3.72" style="fill:#636363"></rect><rect x="315.39" y="354.02" width="5.27" height="3.72" style="fill:#636363"></rect><rect x="327.64" y="349.43" width="5.27" height="2.97" style="fill:#636363"></rect><rect x="335.23" y="349.43" width="5.27" height="2.97" style="fill:#636363"></rect><rect x="327.64" y="354.02" width="5.27" height="3.72" style="fill:#636363"></rect><rect x="335.23" y="354.02" width="5.27" height="3.72" style="fill:#636363"></rect><rect x="347.48" y="349.43" width="5.27" height="2.97" style="fill:#636363"></rect><rect x="355.08" y="349.43" width="5.27" height="2.97" style="fill:#636363"></rect><rect x="347.48" y="354.02" width="5.27" height="3.72" style="fill:#636363"></rect><rect x="355.08" y="354.02" width="5.27" height="3.72" style="fill:#636363"></rect><rect x="367.33" y="349.43" width="5.27" height="2.97" style="fill:#636363"></rect><rect x="374.93" y="349.43" width="5.27" height="2.97" style="fill:#636363"></rect><rect x="367.33" y="354.02" width="5.27" height="3.72" style="fill:#636363"></rect><rect x="374.93" y="354.02" width="5.27" height="3.72" style="fill:#636363"></rect><rect x="387.18" y="349.43" width="5.27" height="2.97" style="fill:#636363"></rect><rect x="394.78" y="349.43" width="5.27" height="2.97" style="fill:#636363"></rect><rect x="387.18" y="354.02" width="5.27" height="3.72" style="fill:#636363"></rect><rect x="394.78" y="354.02" width="5.27" height="3.72" style="fill:#636363"></rect><rect x="407.03" y="349.43" width="5.27" height="2.97" style="fill:#636363"></rect><rect x="414.62" y="349.43" width="5.27" height="2.97" style="fill:#636363"></rect><rect x="407.03" y="354.02" width="5.27" height="3.72" style="fill:#636363"></rect><rect x="414.62" y="354.02" width="5.27" height="3.72" style="fill:#636363"></rect><rect x="426.87" y="349.43" width="5.27" height="2.97" style="fill:#636363"></rect><rect x="434.47" y="349.43" width="5.27" height="2.97" style="fill:#636363"></rect><rect x="426.87" y="354.02" width="5.27" height="3.72" style="fill:#636363"></rect><rect x="434.47" y="354.02" width="5.27" height="3.72" style="fill:#636363"></rect></g><g id="freepik--house-1--inject-13"><rect x="134.2" y="25.39" width="263.8" height="146.56" rx="15.25" style="fill:#fff;stroke:#263238;stroke-miterlimit:10"></rect><path d="M150.16,92s9.47.94,14.26,6.81a18.32,18.32,0,0,1,14.18-6.66A18.4,18.4,0,1,0,150.15,92Z" style="fill:#FCCC15"></path><path d="M150.16,92s9.47.94,14.26,6.81a18.32,18.32,0,0,1,14.18-6.66A18.4,18.4,0,1,0,150.15,92Z" style="fill:#fff;opacity:0.2"></path><polygon points="165.05 117.6 164.11 70.25 163.88 118.09 165.05 117.6" style="fill:#828282"></polygon><path d="M164.59,97s3.2-5.76,8.95-7.51c0,0-6.07,1.43-9.11,6.39Z" style="fill:#828282"></path><path d="M164.35,81s3.44-6.08,9.19-7.83c0,0-6.13,1.66-9.17,6.62Z" style="fill:#828282"></path><path d="M164.45,89.06s3.34-6,9.09-7.71c0,0-6.07,1.43-9.11,6.39Z" style="fill:#828282"></path><path d="M164.12,84.86s-3.09-5.75-8.64-7.51c0,0,5.86,1.44,8.79,6.39Z" style="fill:#828282"></path><path d="M164.12,92.85s-3.09-5.75-8.64-7.51c0,0,5.86,1.44,8.79,6.39Z" style="fill:#828282"></path><path d="M356.72,73.3s9.47.94,14.27,6.81a18.31,18.31,0,0,1,14.17-6.66,18.4,18.4,0,1,0-28.44-.13Z" style="fill:#FCCC15"></path><path d="M356.72,73.3s9.47.94,14.27,6.81a18.31,18.31,0,0,1,14.17-6.66,18.4,18.4,0,1,0-28.44-.13Z" style="fill:#fff;opacity:0.2"></path><polygon points="371.61 98.91 370.67 51.56 370.44 99.4 371.61 98.91" style="fill:#828282"></polygon><path d="M371.15,78.32s3.2-5.75,9-7.51c0,0-6.07,1.44-9.11,6.39Z" style="fill:#828282"></path><path d="M370.91,62.34s3.44-6.08,9.19-7.83c0,0-6.13,1.66-9.16,6.62Z" style="fill:#828282"></path><path d="M371,70.37s3.34-6,9.09-7.71c0,0-6.07,1.44-9.11,6.39Z" style="fill:#828282"></path><path d="M370.68,66.17s-3.08-5.75-8.64-7.51c0,0,5.86,1.44,8.79,6.39Z" style="fill:#828282"></path><path d="M370.68,74.16s-3.08-5.75-8.64-7.51c0,0,5.86,1.44,8.79,6.4Z" style="fill:#828282"></path><path d="M160.78,70.36s12.92,1.28,19.47,9.29a25,25,0,0,1,19.35-9.09,25.11,25.11,0,1,0-38.82-.17Z" style="fill:#FCCC15"></path><path d="M160.78,70.36s12.92,1.28,19.47,9.29a25,25,0,0,1,19.35-9.09,25.11,25.11,0,1,0-38.82-.17Z" style="fill:#fff;opacity:0.4"></path><polygon points="181.1 105.31 179.83 40.7 179.51 105.97 181.1 105.31" style="fill:#828282"></polygon><path d="M180.48,77.21s4.36-7.85,12.21-10.25c0,0-8.28,2-12.43,8.72Z" style="fill:#828282"></path><path d="M180.15,55.4s4.69-8.28,12.54-10.68c0,0-8.36,2.27-12.51,9Z" style="fill:#828282"></path><path d="M180.28,66.37s4.56-8.13,12.41-10.53c0,0-8.28,2-12.43,8.72Z" style="fill:#828282"></path><path d="M179.83,60.64s-4.21-7.85-11.78-10.25c0,0,8,2,12,8.72Z" style="fill:#828282"></path><path d="M179.83,71.54s-4.21-7.85-11.78-10.25c0,0,8,2,12,8.72Z" style="fill:#828282"></path><line x1="147.39" y1="150.47" x2="390.93" y2="150.47" style="fill:none;stroke:#263238;stroke-miterlimit:10;stroke-width:0.9836334586143494px"></line><rect x="162.2" y="115.5" width="99.55" height="34.92" style="fill:#FCCC15;stroke:#263238;stroke-miterlimit:10;stroke-width:0.9836334586143494px"></rect><rect x="167.81" y="115.5" width="88.32" height="34.92" style="fill:#fff;stroke:#263238;stroke-miterlimit:10;stroke-width:0.9836334586143494px"></rect><line x1="185.22" y1="121.2" x2="185.22" y2="150.37" style="fill:#fff;stroke:#263238;stroke-miterlimit:10;stroke-width:0.9836334586143494px"></line><line x1="220.06" y1="121.2" x2="220.06" y2="150.37" style="fill:#fff;stroke:#263238;stroke-miterlimit:10;stroke-width:0.9836334586143494px"></line><line x1="233.12" y1="121.2" x2="233.12" y2="150.37" style="fill:#fff;stroke:#263238;stroke-miterlimit:10;stroke-width:0.9836334586143494px"></line><line x1="246.19" y1="121.2" x2="246.19" y2="150.37" style="fill:#fff;stroke:#263238;stroke-miterlimit:10;stroke-width:0.9836334586143494px"></line><line x1="167.8" y1="128" x2="256.24" y2="128" style="fill:#fff;stroke:#263238;stroke-miterlimit:10;stroke-width:0.9836334586143494px"></line><line x1="167.8" y1="135.71" x2="256.24" y2="135.71" style="fill:#fff;stroke:#263238;stroke-miterlimit:10;stroke-width:0.9836334586143494px"></line><line x1="167.8" y1="143.74" x2="256.24" y2="143.74" style="fill:#fff;stroke:#263238;stroke-miterlimit:10;stroke-width:0.9836334586143494px"></line><rect x="202.65" y="115.5" width="6.21" height="34.92" style="fill:#FCCC15;stroke:#263238;stroke-miterlimit:10;stroke-width:0.9836334586143494px"></rect><polygon points="152.25 120.68 265.47 120.68 265.47 94.26 175.89 94.26 152.25 120.68" style="fill:#263238;stroke:#263238;stroke-miterlimit:10;stroke-width:0.9836334586143494px"></polygon><polygon points="188.33 93.22 266.05 93.22 266.05 70.33 206.99 70.33 188.33 93.22" style="fill:#fff;stroke:#263238;stroke-miterlimit:10;stroke-width:0.9836334586143494px"></polygon><rect x="188.95" y="80.27" width="32.97" height="18.65" style="fill:#FCCC15;stroke:#263238;stroke-miterlimit:10;stroke-width:0.9836334586143494px"></rect><rect x="191.44" y="88.04" width="10.55" height="8.29" style="fill:#fff;stroke:#263238;stroke-miterlimit:10;stroke-width:0.9836334586143494px"></rect><rect x="205.15" y="88.04" width="10.55" height="8.29" style="fill:#fff;stroke:#263238;stroke-miterlimit:10;stroke-width:0.9836334586143494px"></rect><polygon points="180.86 85.97 266.71 85.97 266.71 63.08 201.48 63.08 180.86 85.97" style="fill:#263238;stroke:#263238;stroke-miterlimit:10;stroke-width:0.9836334586143494px"></polygon><rect x="340.12" y="80.27" width="32.97" height="18.65" transform="translate(713.22 179.19) rotate(180)" style="fill:#FCCC15;stroke:#263238;stroke-miterlimit:10;stroke-width:0.9836334586143494px"></rect><rect x="360.06" y="88.04" width="10.55" height="8.29" transform="translate(730.67 184.37) rotate(180)" style="fill:#fff;stroke:#263238;stroke-miterlimit:10;stroke-width:0.9836334586143494px"></rect><rect x="346.35" y="88.04" width="10.55" height="8.29" transform="translate(703.24 184.37) rotate(180)" style="fill:#fff;stroke:#263238;stroke-miterlimit:10;stroke-width:0.9836334586143494px"></rect><polygon points="381.18 85.97 295.33 85.97 295.33 63.08 360.57 63.08 381.18 85.97" style="fill:#263238;stroke:#263238;stroke-miterlimit:10;stroke-width:0.9836334586143494px"></polygon><polygon points="264.23 74.57 217.57 93.22 217.57 108.77 263.6 108.77 264.23 74.57" style="fill:#263238;stroke:#263238;stroke-miterlimit:10;stroke-width:0.9836334586143494px"></polygon><polygon points="285.85 66.95 213.8 96.75 211.13 92.28 283.18 62.47 285.85 66.95" style="fill:#525252;stroke:#263238;stroke-miterlimit:10;stroke-width:0.9836334586143494px"></polygon><polygon points="378.02 98.92 277.75 72.92 277.75 150.42 378.02 150.42 378.02 98.92" style="fill:#FCCC15;stroke:#263238;stroke-miterlimit:10;stroke-width:0.9836334586143494px"></polygon><polygon points="353.4 150.42 378.02 150.42 378.02 98.92 353.4 92.53 353.4 150.42" style="fill:#263238;stroke:#263238;stroke-miterlimit:10;stroke-width:0.9836334586143494px"></polygon><polygon points="384.66 102.25 323.95 86.36 325.75 81.59 386.46 97.48 384.66 102.25" style="fill:#525252;stroke:#263238;stroke-miterlimit:10;stroke-width:0.9836334586143494px"></polygon><polygon points="261.75 150.42 328.05 150.42 328.05 41.92 261.75 68.42 261.75 150.42" style="fill:#fff;stroke:#263238;stroke-miterlimit:10;stroke-width:0.9836334586143494px"></polygon><polygon points="267.96 113.95 328.05 113.95 328.05 41.92 267.96 65.94 267.96 113.95" style="fill:#263238;stroke:#263238;stroke-miterlimit:10;stroke-width:0.9836334586143494px"></polygon><polygon points="261.75 113.92 298.77 113.92 298.77 78.42 261.75 68.42 261.75 113.92" style="fill:#fff;stroke:#263238;stroke-miterlimit:10;stroke-width:0.9836334586143494px"></polygon><polygon points="285.56 113.92 298.77 113.92 298.77 78.42 285.56 74.85 285.56 113.92" style="fill:#FCCC15;stroke:#263238;stroke-miterlimit:10;stroke-width:0.9836334586143494px"></polygon><rect x="285.56" y="115.42" width="13.21" height="34.9" style="fill:#FCCC15;stroke:#263238;stroke-miterlimit:10;stroke-width:0.9836334586143494px"></rect><rect x="254.34" y="111.42" width="80.45" height="5" style="fill:#525252;stroke:#263238;stroke-miterlimit:10;stroke-width:0.9836334586143494px"></rect><polygon points="338.11 40.53 266.05 70.33 263.38 65.85 335.44 36.05 338.11 40.53" style="fill:#525252;stroke:#263238;stroke-miterlimit:10;stroke-width:0.9836334586143494px"></polygon><polygon points="304.21 81.25 255.5 67.86 257.3 63.09 306.01 76.48 304.21 81.25" style="fill:#525252;stroke:#263238;stroke-miterlimit:10;stroke-width:0.9836334586143494px"></polygon><rect x="308.97" y="60.92" width="13.81" height="22.85" style="fill:#fff;stroke:#263238;stroke-miterlimit:10;stroke-width:0.9836334586143494px"></rect><rect x="308.97" y="86.57" width="13.81" height="22.85" style="fill:#fff;stroke:#263238;stroke-miterlimit:10;stroke-width:0.9836334586143494px"></rect><rect x="268.75" y="81.42" width="13.21" height="26" style="fill:#fff;stroke:#263238;stroke-miterlimit:10;stroke-width:0.9836334586143494px"></rect><rect x="268.75" y="118.72" width="13.21" height="19.27" style="fill:#fff;stroke:#263238;stroke-miterlimit:10;stroke-width:0.9836334586143494px"></rect><rect x="358.17" y="109.28" width="13.69" height="34.71" style="fill:#fff;stroke:#263238;stroke-miterlimit:10;stroke-width:0.9836334586143494px"></rect><rect x="300.93" y="119.13" width="10.55" height="28.5" style="fill:#fff;stroke:#263238;stroke-miterlimit:10;stroke-width:0.9836334586143494px"></rect><rect x="314.64" y="119.13" width="10.55" height="28.5" style="fill:#263238;stroke:#263238;stroke-miterlimit:10;stroke-width:0.9836334586143494px"></rect><rect x="222.54" y="95.29" width="36.7" height="4.14" style="fill:#fff;stroke:#263238;stroke-miterlimit:10;stroke-width:0.9836334586143494px"></rect><rect x="315.93" y="120.15" width="8.02" height="5.6" style="fill:#fff;stroke:#263238;stroke-miterlimit:10;stroke-width:0.9836334586143494px"></rect><rect x="315.93" y="126.61" width="8.02" height="5.6" style="fill:#fff;stroke:#263238;stroke-miterlimit:10;stroke-width:0.9836334586143494px"></rect><rect x="315.93" y="133.08" width="8.02" height="5.6" style="fill:#fff;stroke:#263238;stroke-miterlimit:10;stroke-width:0.9836334586143494px"></rect><rect x="315.93" y="139.54" width="8.02" height="5.6" style="fill:#fff;stroke:#263238;stroke-miterlimit:10;stroke-width:0.9836334586143494px"></rect><ellipse cx="182.61" cy="182.7" rx="13.28" ry="7.38" style="fill:#fff;stroke:#263238;stroke-miterlimit:10"></ellipse><ellipse cx="172.78" cy="197.95" rx="6.39" ry="3.93" style="fill:#fff;stroke:#263238;stroke-miterlimit:10"></ellipse></g><g id="freepik--Floor--inject-13"><line x1="17.67" y1="417.46" x2="490" y2="417.46" style="fill:none;stroke:#263238;stroke-miterlimit:10;stroke-width:0.9836334586143494px"></line><polyline points="9.2 435 210.53 435 189.87 467.46" style="fill:none;stroke:#263238;stroke-miterlimit:10;stroke-width:0.9836334586143494px"></polyline><polyline points="27.4 421.08 220.65 421.08 213.48 430.82 14.16 430.82" style="fill:#FCCC15"></polyline><line x1="467.62" y1="422.11" x2="489.14" y2="443.63" style="fill:none;stroke:#263238;stroke-miterlimit:10;stroke-width:0.9836334586143494px"></line></g></svg>